# xmcd
# 
# Track frame offsets:
#     150
#     17552
#     37739
#     43431
#     64034
#     88634
#     105761
#     123946
#     143543
#     159536
#     180917
#     197720
#     210614
#     234901
# 
# Disc length: 3393
# 
# Revision: 1
# Processed by: cddbd v1.5.2PL0 Copyright (c) Steve Scherf et al.
# Submitted via: fre:ac v1.0.27
# 
DISCID=a60d3f0e
DTITLE=Victor Wainwright and the WildRoots - Beale Street to the Bayou
DYEAR=2009
DGENRE=Blues
TTITLE0=Mighty Man
TTITLE1=Planet Earth
TTITLE2=Sold Down River
TTITLE3=Long Way to Go
TTITLE4=Blues in the Rain
TTITLE5=What You Want
TTITLE6=WildRoot Jam
TTITLE7=School of Hard Knocks
TTITLE8=Not Afraid
TTITLE9=Square
TTITLE10=Sweet Louise
TTITLE11=Blues Grass
TTITLE12=What'd I Say
TTITLE13=Beale Street to the Bayou
EXTD=
EXTT0=
EXTT1=
EXTT2=
EXTT3=
EXTT4=
EXTT5=
EXTT6=
EXTT7=
EXTT8=
EXTT9=
EXTT10=
EXTT11=
EXTT12=
EXTT13=
PLAYORDER=
